HIERARCHY
ROOT root
{
	OFFSET	0	13.1	24.9
	CHANNELS 6  Xposition Yposition Zposition Xrotation Yrotation Zrotation
	JOINT spine_1
	{
		OFFSET	0	9.99999	0
		CHANNELS 3  Xrotation Yrotation Zrotation
		JOINT spine_2
		{
			OFFSET	0	112	-10
			CHANNELS 3  Xrotation Yrotation Zrotation
			JOINT spine_3
			{
				OFFSET	0	206.5	19.3
				CHANNELS 3  Xrotation Yrotation Zrotation
				JOINT spine_4
				{
					OFFSET	0	110.4	14.6
					CHANNELS 3  Xrotation Yrotation Zrotation
					JOINT neck_1
					{
						OFFSET	0	71.8	-50.3
						CHANNELS 3  Xrotation Yrotation Zrotation
						JOINT neck_2
						{
							OFFSET	0	86.2	-25.8
							CHANNELS 3  Xrotation Yrotation Zrotation
							JOINT head_ee
							{
								OFFSET	0	179.8	-8.7
								CHANNELS 3  Xrotation Yrotation Zrotation
								End Site
								{
									OFFSET	1	0	0
								}
							}
						}
					}
					JOINT left_clavicle
					{
						OFFSET	-43.2	22.4	-70.8
						CHANNELS 3  Xrotation Yrotation Zrotation
						JOINT left_shoulder
						{
							OFFSET	-93.9	-5.79999	48.7
							CHANNELS 3  Xrotation Yrotation Zrotation
							JOINT left_elbow
							{
								OFFSET	-291.4	-30.8	15.2
								CHANNELS 3  Xrotation Yrotation Zrotation
								JOINT left_lowarm_twist
								{
									OFFSET	-110.7	-3.89999	13.6
									CHANNELS 3  Xrotation Yrotation Zrotation
									JOINT left_hand
									{
										OFFSET	-110.7	-3.89999	13.6
										CHANNELS 3  Xrotation Yrotation Zrotation
										JOINT left_ee
										{
											OFFSET	-80.8	-5.10001	12.1
											CHANNELS 3  Xrotation Yrotation Zrotation
											End Site
											{
												OFFSET	1	0	0
											}
										}
									}
								}
							}
						}
					}
					JOINT right_clavicle
					{
						OFFSET	43.2	22.4	-70.8
						CHANNELS 3  Xrotation Yrotation Zrotation
						JOINT right_shoulder
						{
							OFFSET	93.9	-5.79999	48.7
							CHANNELS 3  Xrotation Yrotation Zrotation
							JOINT right_elbow
							{
								OFFSET	291.4	-30.8	15.2
								CHANNELS 3  Xrotation Yrotation Zrotation
								JOINT right_lowarm_twist
								{
									OFFSET	110.7	-3.89999	13.6
									CHANNELS 3  Xrotation Yrotation Zrotation
									JOINT right_hand
									{
										OFFSET	110.7	-3.89999	13.6
										CHANNELS 3  Xrotation Yrotation Zrotation
										JOINT right_ee
										{
											OFFSET	80.8	-5.10001	12.1
											CHANNELS 3  Xrotation Yrotation Zrotation
											End Site
											{
												OFFSET	1	0	0
											}
										}
									}
								}
							}
						}
					}
				}
			}
		}
	}
	JOINT left_hip
	{
		OFFSET	-82.8	-127.5	0.300001
		CHANNELS 3  Xrotation Yrotation Zrotation
		JOINT left_knee
		{
			OFFSET	-28.2	-396.7	2.2
			CHANNELS 3  Xrotation Yrotation Zrotation
			JOINT left_ankle
			{
				OFFSET	-11.7	-411.3	35.4
				CHANNELS 3  Xrotation Yrotation Zrotation
				JOINT left_toes
				{
					OFFSET	0	-60	-88.6
					CHANNELS 3  Xrotation Yrotation Zrotation
					JOINT left_foot_ee
					{
						OFFSET	-22.5	-16.5	-42.2
						CHANNELS 3  Xrotation Yrotation Zrotation
						End Site
						{
							OFFSET	1	0	0
						}
					}
				}
			}
		}
	}
	JOINT right_hip
	{
		OFFSET	82.8	-127.5	0.300001
		CHANNELS 3  Xrotation Yrotation Zrotation
		JOINT right_knee
		{
			OFFSET	28.2	-396.7	2.2
			CHANNELS 3  Xrotation Yrotation Zrotation
			JOINT right_ankle
			{
				OFFSET	11.7	-411.3	35.4
				CHANNELS 3  Xrotation Yrotation Zrotation
				JOINT right_toes
				{
					OFFSET	0	-60	-88.6
					CHANNELS 3  Xrotation Yrotation Zrotation
					JOINT right_foot_ee
					{
						OFFSET	22.5	-16.5	-42.2
						CHANNELS 3  Xrotation Yrotation Zrotation
						End Site
						{
							OFFSET	1	0	0
						}
					}
				}
			}
		}
	}
}
MOTION
Frames: 9
Frame Time: 0.02
3488.52378395 727.166 -1535.38411813 7.79145889297 51.9504497333 -8.54143329574 -3.41533 0.675614 1.37916 -3.41446 0.586494 1.41935 -3.39794 0.185159 1.52453 -3.40093 0.42358 1.47617 -15.0409 16.2236 11.5574 -15.1688 24.2676 16.292 -0.0 0.0 -0.0 7.21019 -17.1764 13.4467 -23.6059 18.5159 81.7691 0.362283 -10.1745 0.0322516 -50.4989 -4.13037 4.70874 -9.00023 18.114 -57.6864 -0.0 0.0 -0.0 9.0793 28.9374 -16.4824 32.8087 0.323632 -64.3822 0.245798 6.94238 -0.0149096 5.32662 -0.156987 0.662038 5.26041 -31.1717 -45.0607 0.0 0.0 0.0 20.4357 39.0916 -15.1051 -42.1716 -0.610676 6.29958 34.3636 9.7399 -4.34722 -33.7748 0.0 0.0 -0.0 0.0 -0.0 8.95188 31.1224 -3.06917 -34.7997 0.169491 -5.25675 21.6866 14.5084 3.15585 -12.5317 0.0 0.0 0.0 0.0 0.0 
3491.24808728 727.166 -1539.06906211 7.38823510732 49.4751074145 -8.0205828293 -3.41533 0.675614 1.37916 -3.41446 0.586494 1.41935 -3.39794 0.185159 1.52453 -3.40093 0.42358 1.47617 -15.0409 16.2236 11.5574 -15.1688 24.2676 16.292 -0.0 0.0 -0.0 7.21019 -17.1764 13.4467 -23.6059 18.5159 81.7691 0.362283 -10.1745 0.0322516 -50.4989 -4.13037 4.70874 -9.00023 18.114 -57.6864 -0.0 0.0 -0.0 9.0793 28.9374 -16.4824 32.8087 0.323632 -64.3822 0.245798 6.94238 -0.0149096 5.32662 -0.156987 0.662038 5.26041 -31.1717 -45.0607 0.0 0.0 0.0 20.4357 39.0916 -15.1051 -42.1716 -0.610676 6.29958 34.3636 9.7399 -4.34722 -33.7748 0.0 0.0 -0.0 0.0 -0.0 8.95188 31.1224 -3.06917 -34.7997 0.169491 -5.25675 21.6866 14.5084 3.15585 -12.5317 0.0 0.0 0.0 0.0 0.0 
3493.68044801 727.166 -1542.09621351 7.08764920352 47.3758978135 -7.61884840242 -3.41533 0.675614 1.37916 -3.41446 0.586494 1.41935 -3.39794 0.185159 1.52453 -3.40093 0.42358 1.47617 -15.0409 16.2236 11.5574 -15.1688 24.2676 16.292 -0.0 0.0 -0.0 7.21019 -17.1764 13.4467 -23.6059 18.5159 81.7691 0.362283 -10.1745 0.0322516 -50.4989 -4.13037 4.70874 -9.00023 18.114 -57.6864 -0.0 0.0 -0.0 9.0793 28.9374 -16.4824 32.8087 0.323632 -64.3822 0.245798 6.94238 -0.0149096 5.32662 -0.156987 0.662038 5.26041 -31.1717 -45.0607 0.0 0.0 0.0 20.4357 39.0916 -15.1051 -42.1716 -0.610676 6.29958 34.3636 9.7399 -4.34722 -33.7748 0.0 0.0 -0.0 0.0 -0.0 8.95188 31.1224 -3.06917 -34.7997 0.169491 -5.25675 21.6866 14.5084 3.15585 -12.5317 0.0 0.0 0.0 0.0 0.0 
3487.42578063 714.974 -1542.57693625 9.38536587289 49.3583581681 -9.95461734502 -3.55991 0.870525 1.4125 -3.55914 0.77889 1.46501 -3.53696 0.354456 1.62086 -3.54012 0.605963 1.54457 -16.8179 15.2657 9.46975 -17.188 24.0457 14.4828 -0.0 0.0 -0.0 6.09728 -8.39023 11.5604 -25.4397 14.2435 79.6636 0.703071 -19.2023 0.118931 -49.8513 -4.05438 4.67511 -9.30746 20.0226 -58.3698 -0.0 0.0 -0.0 8.60506 28.767 -15.4548 33.9595 0.867039 -64.6684 0.307343 8.65691 -0.0232627 8.19209 -0.215784 1.02332 5.80584 -32.2117 -49.6687 0.0 0.0 0.0 27.2583 38.3767 -19.3951 -49.093 -1.14409 7.22068 33.5941 17.5222 -4.35103 -36.0009 0.0 0.0 -0.0 0.0 -0.0 6.05257 32.9383 -2.61128 -36.0341 0.233923 -5.43511 25.3238 16.6243 3.66417 -11.0066 0.0 0.0 0.0 0.0 0.0 
3481.04959058 709.136 -1541.74624481 10.4168534066 52.2764648904 -11.1356700116 -3.60655 1.08894 1.52706 -3.6058 0.989572 1.59324 -3.57556 0.521601 1.80151 -3.57919 0.799529 1.69657 -17.6658 14.2735 5.64458 -18.3003 24.3802 10.8336 -0.0 0.0 -0.0 6.11163 -4.16944 11.746 -26.9572 9.0079 76.8283 0.873122 -23.3892 0.180732 -53.2291 -4.45473 4.84104 -9.28167 20.4078 -57.3684 -0.0 0.0 -0.0 8.23976 29.9481 -14.5097 32.7773 0.961176 -64.3827 0.498895 13.882 -0.0607356 12.7567 -0.271945 1.60352 6.28768 -31.9628 -54.3835 0.0 0.0 0.0 28.252 31.7918 -17.7373 -50.4288 -1.25972 7.39082 32.5282 16.7326 -4.22769 -40.3337 0.0 0.0 -0.0 0.0 -0.0 5.11508 32.8934 -2.62346 -36.64 0.266961 -5.52216 26.2146 17.6176 3.8012 -10.4417 0.0 0.0 0.0 0.0 0.0 
3465.4546731 708.459 -1547.2238483 12.1728569985 53.2635675324 -12.5838548027 -4.01008 1.37695 1.61485 -4.00952 1.27142 1.69918 -3.96852 0.750863 1.98486 -3.97246 1.05486 1.84144 -18.5267 13.7862 3.74007 -19.2957 24.5559 9.11305 -0.0 0.0 -0.0 5.93701 -4.41843 11.3836 -27.8084 10.205 78.0685 0.902242 -24.0817 0.192454 -51.4505 -4.24271 4.75661 -9.28988 20.3624 -57.5499 -0.0 0.0 -0.0 8.21908 29.7604 -14.4868 34.3579 1.88054 -65.7174 0.497434 13.8429 -0.0603854 12.8016 -0.272267 1.60924 6.13563 -31.9707 -52.8337 0.0 0.0 0.0 32.6776 34.4079 -21.0507 -52.3776 -1.43548 7.63414 31.7165 21.9551 -4.2318 -38.2998 0.0 0.0 -0.0 0.0 -0.0 4.17702 34.5685 -3.3221 -38.1602 0.35389 -5.739 24.6017 18.5744 3.63009 -12.3039 0.0 0.0 0.0 0.0 0.0 
3455.9350151 702.496 -1548.61992685 13.546957394 55.3788322959 -13.8454937494 -4.0647 1.58966 1.5505 -4.0646 1.48779 1.6485 -4.01875 0.971182 1.9969 -4.02205 1.27432 1.81854 -18.9176 13.2236 1.75523 -19.7534 24.54 7.15318 -0.0 0.0 -0.0 5.59055 -1.54693 10.7751 -28.3703 8.26124 76.1389 1.01324 -26.6528 0.240018 -52.45 -4.36154 4.80487 -9.24694 20.339 -57.0556 -0.0 0.0 -0.0 7.84124 30.0955 -13.617 34.9817 2.35534 -65.7981 0.596655 16.466 -0.0863307 15.9263 -0.283682 2.00813 6.30323 -31.401 -54.6466 0.0 0.0 0.0 33.4179 32.2608 -20.3477 -47.6452 -1.02332 7.03336 30.7012 25.0984 -4.19034 -39.6788 0.0 0.0 -0.0 0.0 -0.0 2.67089 35.0372 -3.79813 -38.3317 0.364055 -5.76331 27.3627 21.1639 4.05829 -11.7343 0.0 0.0 0.0 0.0 0.0 
3441.98480083 696.244 -1556.79462706 13.9082320436 57.9681078175 -14.2916141957 -3.98379 1.43192 1.75468 -3.98305 1.31738 1.84221 -3.93682 0.756634 2.13457 -3.94154 1.08419 1.98838 -18.4217 13.2337 2.01345 -19.2066 24.3947 7.27048 -0.0 0.0 -0.0 5.32747 -0.343311 10.2904 -28.3418 7.45215 74.8416 0.958237 -25.3924 0.215886 -52.509 -4.36858 4.80765 -9.24498 21.2592 -55.4803 -0.0 0.0 -0.0 7.81862 30.1527 -13.5606 34.609 2.60496 -66.1208 0.679764 18.6102 -0.111379 18.9283 -0.274154 2.3914 6.4927 -30.6729 -56.8553 0.0 0.0 0.0 34.468 30.2713 -20.4249 -44.8537 -0.804067 6.66397 27.2569 24.3549 -3.76991 -40.2381 0.0 0.0 -0.0 0.0 -0.0 1.93663 36.3212 -4.8149 -37.743 0.329459 -5.67972 29.6063 18.8849 4.24297 -11.4692 0.0 0.0 0.0 0.0 0.0 
3441.5318004 696.244 -1556.05903172 14.0315567456 58.2764097173 -14.4368421628 -3.98379 1.43192 1.75468 -3.98305 1.31738 1.84221 -3.93682 0.756634 2.13457 -3.94154 1.08419 1.98838 -18.4217 13.2337 2.01345 -19.2066 24.3947 7.27048 -0.0 0.0 -0.0 5.32747 -0.343311 10.2904 -28.3418 7.45215 74.8416 0.958237 -25.3924 0.215886 -52.509 -4.36858 4.80765 -9.24498 21.2592 -55.4803 -0.0 0.0 -0.0 7.81862 30.1527 -13.5606 34.609 2.60496 -66.1208 0.679764 18.6102 -0.111379 18.9283 -0.274154 2.3914 6.4927 -30.6729 -56.8553 0.0 0.0 0.0 34.468 30.2713 -20.4249 -44.8537 -0.804067 6.66397 27.2569 24.3549 -3.76991 -40.2381 0.0 0.0 -0.0 0.0 -0.0 1.93663 36.3212 -4.8149 -37.743 0.329459 -5.67972 29.6063 18.8849 4.24297 -11.4692 0.0 0.0 0.0 0.0 0.0 
